<?xml version="1.0" encoding="UTF-8" standalone="no"?>
<!-- Created with Inkscape (http://www.inkscape.org/) -->

<svg
   xmlns:dc="http://purl.org/dc/elements/1.1/"
   xmlns:cc="http://creativecommons.org/ns#"
   xmlns:rdf="http://www.w3.org/1999/02/22-rdf-syntax-ns#"
   xmlns:svg="http://www.w3.org/2000/svg"
   xmlns="http://www.w3.org/2000/svg"
   xmlns:sodipodi="http://sodipodi.sourceforge.net/DTD/sodipodi-0.dtd"
   xmlns:inkscape="http://www.inkscape.org/namespaces/inkscape"
   version="1.1"
   id="svg3680"
   xml:space="preserve"
   width="123.69312"
   height="200"
   viewBox="0 0 123.69312 200"
   sodipodi:docname="micglyph.svg"
   inkscape:version="0.92.1 r15371"><metadata
     id="metadata3686"><rdf:RDF><cc:Work
         rdf:about=""><dc:format>image/svg+xml</dc:format><dc:type
           rdf:resource="http://purl.org/dc/dcmitype/StillImage" /><dc:title></dc:title></cc:Work></rdf:RDF></metadata><defs
     id="defs3684"><clipPath
       clipPathUnits="userSpaceOnUse"
       id="clipPath3696"><path
         d="M 0,1.2207e-4 H 960 V 540.00012 H 0 Z"
         id="path3694"
         inkscape:connector-curvature="0"
         style="clip-rule:evenodd" /></clipPath><clipPath
       id="clipPath3739"
       clipPathUnits="userSpaceOnUse"><path
         style="clip-rule:evenodd"
         inkscape:connector-curvature="0"
         id="path3737"
         d="M 0,1.2207e-4 H 960 V 540.00012 H 0 Z" /></clipPath></defs><sodipodi:namedview
     pagecolor="#ffffff"
     bordercolor="#666666"
     borderopacity="1"
     objecttolerance="10"
     gridtolerance="10"
     guidetolerance="10"
     inkscape:pageopacity="0"
     inkscape:pageshadow="2"
     inkscape:window-width="3000"
     inkscape:window-height="1875"
     id="namedview3682"
     showgrid="false"
     fit-margin-top="0"
     fit-margin-left="0"
     fit-margin-right="0"
     fit-margin-bottom="0"
     inkscape:zoom="1.5399214"
     inkscape:cx="2.6758495"
     inkscape:cy="214.50177"
     inkscape:window-x="-13"
     inkscape:window-y="-13"
     inkscape:window-maximized="1"
     inkscape:current-layer="g3688" /><g
     id="g3688"
     inkscape:groupmode="layer"
     inkscape:label="micglyph"
     transform="matrix(1.3333333,0,0,-1.3333333,-432.53033,443.63658)"><path
       d="m 169.88,378.13 c 0,11.32 9.17,20.49 20.49,20.49 h 4.76 c 11.32,0 20.5,-9.17 20.5,-20.49 v -56.51 c 0,-11.32 -9.18,-20.5 -20.5,-20.5 h -4.76 c -11.32,0 -20.49,9.18 -20.49,20.5 z"
       style="fill:#ffffff;fill-opacity:1;fill-rule:evenodd;stroke:none"
       id="path3700"
       inkscape:connector-curvature="0" /><path
       d="m 162,248.25 h 60.375 V 255 H 162 Z"
       style="fill:#ffffff;fill-opacity:1;fill-rule:evenodd;stroke:none"
       id="path3702"
       inkscape:connector-curvature="0" /><path
       d="m 189.38,255 h 7.5 v 24.75 h -7.5 z"
       style="fill:#ffffff;fill-opacity:1;fill-rule:evenodd;stroke:none"
       id="path3704"
       inkscape:connector-curvature="0" /><path
       d="m 239.99,339.32 c 0.1,-9.59 -0.7,-18.21 -0.6,-27.8 C 239.39,290.24 222.11,273 200.8,273 H 185.59 C 164.28,273 147,290.24 147,311.52 v 27.51 h 4.15 4.16 v -27.51 c 0,-16.7 13.56,-30.23 30.28,-30.23 h 15.21 c 16.72,0 30.28,13.53 30.28,30.23 l 0.71,27.85 z"
       style="fill:#ffffff;fill-opacity:1;fill-rule:evenodd;stroke:none"
       id="path3706"
       inkscape:connector-curvature="0" /><g
       inkscape:label="micglyph"
       id="g3731"
       transform="matrix(0.99753943,0,0,0.99753943,177.75946,-64.911724)"><g
         id="g3733"><g
           clip-path="url(#clipPath3739)"
           id="g3735" /></g><path
         inkscape:connector-curvature="0"
         id="path3743"
         style="fill:#ffffff;fill-opacity:1;fill-rule:evenodd;stroke:none"
         d="m 169.88,378.13 c 0,11.32 9.17,20.49 20.49,20.49 h 4.76 c 11.32,0 20.5,-9.17 20.5,-20.49 v -56.51 c 0,-11.32 -9.18,-20.5 -20.5,-20.5 h -4.76 c -11.32,0 -20.49,9.18 -20.49,20.5 z" /><path
         inkscape:connector-curvature="0"
         id="path3745"
         style="fill:#ffffff;fill-opacity:1;fill-rule:evenodd;stroke:none"
         d="m 162,248.25 h 60.375 V 255 H 162 Z" /><path
         inkscape:connector-curvature="0"
         id="path3747"
         style="fill:#ffffff;fill-opacity:1;fill-rule:evenodd;stroke:none"
         d="m 189.38,255 h 7.5 v 24.75 h -7.5 z" /><path
         inkscape:connector-curvature="0"
         id="path3749"
         style="fill:#ffffff;fill-opacity:1;fill-rule:evenodd;stroke:none"
         d="m 239.99,339.32 c 0.1,-9.59 -0.7,-18.21 -0.6,-27.8 C 239.39,290.24 222.11,273 200.8,273 H 185.59 C 164.28,273 147,290.24 147,311.52 v 27.51 h 4.15 4.16 v -27.51 c 0,-16.7 13.56,-30.23 30.28,-30.23 h 15.21 c 16.72,0 30.28,13.53 30.28,30.23 l 0.71,27.85 z" /></g></g></svg>